<?xml version="1.0" encoding="utf-8"?>
<!-- Generator: Adobe Illustrator 24.1.0, SVG Export Plug-In . SVG Version: 6.00 Build 0)  -->
<svg version="1.1" id="Layer_1" xmlns="http://www.w3.org/2000/svg" xmlns:xlink="http://www.w3.org/1999/xlink" x="0px" y="0px"
	 viewBox="0 0 1024 373.8" style="enable-background:new 0 0 1024 373.8;" xml:space="preserve">
<style type="text/css">
	.st0{fill:url(#SVGID_1_);}
	.st1{fill:url(#SVGID_2_);}
	.st2{fill:url(#SVGID_3_);}
	.st3{fill:url(#SVGID_4_);}
	.st4{fill:url(#SVGID_5_);}
	.st5{fill:#00A548;}
	.st6{fill:url(#SVGID_6_);}
	.st7{fill:url(#SVGID_7_);}
	.st8{fill:url(#SVGID_8_);}
	.st9{fill:url(#SVGID_9_);}
	.st10{fill:url(#SVGID_10_);}
	.st11{fill:url(#SVGID_11_);}
	.st12{fill:url(#SVGID_12_);}
	.st13{fill:url(#SVGID_13_);}
	.st14{fill:url(#SVGID_14_);}
	.st15{fill:#FFFFFF;}
</style>
<g>
	<g>
		<g>
			<linearGradient id="SVGID_1_" gradientUnits="userSpaceOnUse" x1="42.6599" y1="283.9995" x2="378.8481" y2="89.9012">
				<stop  offset="0.1557" style="stop-color:#F85054"/>
				<stop  offset="0.3557" style="stop-color:#EB343C"/>
				<stop  offset="0.5367" style="stop-color:#E2222D"/>
				<stop  offset="0.6655" style="stop-color:#DF1B27"/>
				<stop  offset="1" style="stop-color:#56060A"/>
			</linearGradient>
			<rect x="66.4" y="48.8" class="st0" width="288.8" height="276.3"/>
			<linearGradient id="SVGID_2_" gradientUnits="userSpaceOnUse" x1="117.145" y1="25.7312" x2="303.6643" y2="348.7921">
				<stop  offset="0.1557" style="stop-color:#F85054"/>
				<stop  offset="0.3557" style="stop-color:#EB343C"/>
				<stop  offset="0.5367" style="stop-color:#E2222D"/>
				<stop  offset="0.6655" style="stop-color:#DF1B27"/>
				<stop  offset="1" style="stop-color:#56060A"/>
			</linearGradient>
			<rect x="70.1" y="52.9" class="st1" width="280.7" height="268.7"/>
		</g>
		<g>
			<linearGradient id="SVGID_3_" gradientUnits="userSpaceOnUse" x1="149.9941" y1="57.7812" x2="149.9941" y2="272.5445">
				<stop  offset="0.1557" style="stop-color:#9EA2A3"/>
				<stop  offset="0.6655" style="stop-color:#FFFFFF"/>
				<stop  offset="1" style="stop-color:#C9CCCD"/>
			</linearGradient>
			<polygon class="st2" points="172.2,57.8 30.7,176.4 84,240.2 163.2,240.2 153.7,272.5 226,272.5 269.3,130 198.7,129.5 
				184.9,172.4 130.8,172.4 264.9,57.8 			"/>
			<linearGradient id="SVGID_4_" gradientUnits="userSpaceOnUse" x1="26.9617" y1="165.163" x2="272.8654" y2="165.163">
				<stop  offset="0.1557" style="stop-color:#FCC94C"/>
				<stop  offset="0.4144" style="stop-color:#DD8B3F"/>
				<stop  offset="0.707" style="stop-color:#F9D63F"/>
				<stop  offset="1" style="stop-color:#F1933C"/>
			</linearGradient>
			<path class="st3" d="M227.9,275.2h-77.7l9.5-32.4h-77L27,176L171.2,55.2H272l-134,114.6H183l13.8-42.9l76.1,0.5L227.9,275.2z
				 M157.2,269.9H224l41.8-137.3l-65.2-0.5L186.8,175h-63.1l134-114.6h-84.6L34.3,176.7l50.9,60.8h81.5L157.2,269.9z"/>
		</g>
		<g>
			<linearGradient id="SVGID_5_" gradientUnits="userSpaceOnUse" x1="292.6632" y1="188.7891" x2="292.6632" y2="274.2535">
				<stop  offset="9.619211e-02" style="stop-color:#FFFFFF"/>
				<stop  offset="0.3812" style="stop-color:#9EA2A3"/>
				<stop  offset="0.6655" style="stop-color:#FFFFFF"/>
				<stop  offset="1" style="stop-color:#C9CCCD"/>
			</linearGradient>
			<path class="st4" d="M365.2,255.1c-1-12.2-12.3-16.9-18.3-15.8c5.1-2.9,12-16.3,1.5-26.7c-8.1-7.9-18.7-5-22.4-1.5
				c2-6.6-1.2-20.3-14.4-22.1c-12.1-1.7-17.3,6.9-18.8,10.9c-2.3-5.7-7.8-11.9-18.2-10.9c-13.1,1.2-17.3,14-15.3,21.4
				c-5.2-3.5-14.4-5.3-21.9,1.7c-10.3,9.7-4.7,23.6,0.8,26.8c-6.1-0.6-15.9,3.5-17.8,14.3c-2.4,13.3,7.9,21.1,17.8,21.1h109.9
				C359.6,274.3,366.1,264.4,365.2,255.1z M239.2,214.1c8-7.1,19.3-4.4,23.9,6.4l20.4,46.2l-41.8-28.5
				C231.4,231.1,233.2,219.3,239.2,214.1z M238,271.7c-9.9,0-17.7-9-14.6-20c3.7-9.6,14.2-13.3,22.9-7.3l39.2,27.3H238z M291,209.6
				l-7.5,51.8l-20.9-49.2c-5.1-12,5.7-20.3,12.4-20.4C282.9,190.8,292.8,196.8,291,209.6z M346.7,214.8c5.2,5.6,7.1,16.4-2.7,23.1
				l-41.8,28.7l19.7-45.7C328.2,206.7,341.6,209.5,346.7,214.8z M300.5,208.7c-0.2-1.1-2.3-1.1-2.4-1h-3.9
				c-0.4-11.6,8.6-16.6,16-16.1c7.9,0.4,17.1,9.6,12.6,20.5l-20.7,49.2l-6.6-44.5C294.4,210.1,299,209.9,300.5,208.7z M348.4,271.7
				h-48.2l39.2-27.3c9.4-6.6,19.9-0.5,22.4,7.8C364.8,261.6,358.3,271.7,348.4,271.7z"/>
			<path class="st5" d="M348.5,271.9h-48.2l39.2-27.3c9.4-6.6,19.9-0.5,22.4,7.8C364.9,261.7,358.4,271.9,348.5,271.9L348.5,271.9z"
				/>
			<linearGradient id="SVGID_6_" gradientUnits="userSpaceOnUse" x1="330.3961" y1="250.5765" x2="313.5933" y2="221.4733">
				<stop  offset="9.660034e-02" style="stop-color:#2699C9"/>
				<stop  offset="0.2891" style="stop-color:#299ACA"/>
				<stop  offset="0.4135" style="stop-color:#319ECC"/>
				<stop  offset="0.5186" style="stop-color:#40A5D0"/>
				<stop  offset="0.6129" style="stop-color:#55AFD5"/>
				<stop  offset="0.7001" style="stop-color:#70BCDC"/>
				<stop  offset="0.782" style="stop-color:#92CCE4"/>
				<stop  offset="0.8597" style="stop-color:#BADEEE"/>
				<stop  offset="0.9324" style="stop-color:#E6F3F9"/>
				<stop  offset="0.9676" style="stop-color:#FFFFFF"/>
			</linearGradient>
			<path class="st6" d="M344.1,238.1l-41.8,28.7l19.7-45.7c6.3-14.3,19.7-11.5,24.8-6.1C352.1,220.5,353.9,231.4,344.1,238.1
				L344.1,238.1z"/>
			<linearGradient id="SVGID_7_" gradientUnits="userSpaceOnUse" x1="293.6115" y1="198.3333" x2="323.1078" y2="249.4223">
				<stop  offset="9.619211e-02" style="stop-color:#873F8C"/>
				<stop  offset="0.1606" style="stop-color:#8A438F"/>
				<stop  offset="0.2311" style="stop-color:#925197"/>
				<stop  offset="0.3045" style="stop-color:#A067A4"/>
				<stop  offset="0.3799" style="stop-color:#B385B6"/>
				<stop  offset="0.4569" style="stop-color:#CCADCE"/>
				<stop  offset="0.534" style="stop-color:#E9DCEA"/>
				<stop  offset="0.5838" style="stop-color:#FFFFFF"/>
				<stop  offset="0.7191" style="stop-color:#C6A4C9"/>
				<stop  offset="0.8363" style="stop-color:#995B9D"/>
				<stop  offset="0.8903" style="stop-color:#873F8C"/>
			</linearGradient>
			<path class="st7" d="M322.9,212.3l-20.7,49.2l-6.6-44.5c-1.1-6.8,3.6-7,5.1-8.2c-0.2-1.1-2.3-1.1-2.4-1h-3.9
				c-0.4-11.6,8.6-16.6,16-16.1C318.2,192.1,327.4,201.3,322.9,212.3L322.9,212.3z"/>
			<linearGradient id="SVGID_8_" gradientUnits="userSpaceOnUse" x1="266.3507" y1="195.3215" x2="299.3394" y2="252.4596">
				<stop  offset="9.619211e-02" style="stop-color:#C71E33"/>
				<stop  offset="0.366" style="stop-color:#C82035"/>
				<stop  offset="0.4945" style="stop-color:#C9283C"/>
				<stop  offset="0.5932" style="stop-color:#CD3548"/>
				<stop  offset="0.6766" style="stop-color:#D14758"/>
				<stop  offset="0.7504" style="stop-color:#D75F6E"/>
				<stop  offset="0.8173" style="stop-color:#DF7D89"/>
				<stop  offset="0.8792" style="stop-color:#E7A0A9"/>
				<stop  offset="0.9371" style="stop-color:#F1C9CE"/>
				<stop  offset="0.9897" style="stop-color:#FDF5F6"/>
				<stop  offset="1" style="stop-color:#FFFFFF"/>
			</linearGradient>
			<path class="st8" d="M291.1,209.7l-7.5,51.8l-20.9-49.2c-5.1-12,5.7-20.3,12.4-20.4C283,191,292.9,196.9,291.1,209.7L291.1,209.7
				z"/>
			<linearGradient id="SVGID_9_" gradientUnits="userSpaceOnUse" x1="241.7375" y1="212.5265" x2="275.7815" y2="271.4925">
				<stop  offset="9.619211e-02" style="stop-color:#E7642A"/>
				<stop  offset="0.2042" style="stop-color:#E7672E"/>
				<stop  offset="0.304" style="stop-color:#E96F39"/>
				<stop  offset="0.4006" style="stop-color:#EB7C4C"/>
				<stop  offset="0.4952" style="stop-color:#EE9066"/>
				<stop  offset="0.5884" style="stop-color:#F2A888"/>
				<stop  offset="0.6806" style="stop-color:#F6C7B2"/>
				<stop  offset="0.7701" style="stop-color:#FCEAE2"/>
				<stop  offset="0.8177" style="stop-color:#FFFFFF"/>
				<stop  offset="0.8239" style="stop-color:#FDF5F2"/>
				<stop  offset="0.8537" style="stop-color:#F7CAB6"/>
				<stop  offset="0.8824" style="stop-color:#F1A584"/>
				<stop  offset="0.9093" style="stop-color:#ED895D"/>
				<stop  offset="0.9339" style="stop-color:#EA7541"/>
				<stop  offset="0.9554" style="stop-color:#E86830"/>
				<stop  offset="0.9715" style="stop-color:#E7642A"/>
			</linearGradient>
			<path class="st9" d="M263.3,220.8l20.4,46.2l-41.8-28.5c-10.4-7.1-8.5-19-2.5-24.1C247.3,207.2,258.7,209.9,263.3,220.8
				L263.3,220.8z"/>
			<linearGradient id="SVGID_10_" gradientUnits="userSpaceOnUse" x1="238.4086" y1="238.9106" x2="264.5023" y2="284.1062">
				<stop  offset="9.619211e-02" style="stop-color:#F2C63A"/>
				<stop  offset="0.6564" style="stop-color:#FFFFFF"/>
				<stop  offset="0.7188" style="stop-color:#FBEEC5"/>
				<stop  offset="0.7804" style="stop-color:#F8E093"/>
				<stop  offset="0.838" style="stop-color:#F5D56C"/>
				<stop  offset="0.8908" style="stop-color:#F4CD50"/>
				<stop  offset="0.9369" style="stop-color:#F2C83F"/>
				<stop  offset="0.9715" style="stop-color:#F2C639"/>
			</linearGradient>
			<path class="st10" d="M223.5,251.8c3.7-9.6,14.2-13.3,22.9-7.3l39.2,27.3h-47.5C228.2,271.9,220.5,262.9,223.5,251.8L223.5,251.8
				z"/>
		</g>
		<g>
			<linearGradient id="SVGID_11_" gradientUnits="userSpaceOnUse" x1="113.8481" y1="286.7912" x2="113.8481" y2="309.6726">
				<stop  offset="0.1557" style="stop-color:#CCD9D3"/>
				<stop  offset="0.6655" style="stop-color:#FFFFFF"/>
				<stop  offset="1" style="stop-color:#C9CCCD"/>
			</linearGradient>
			<path class="st11" d="M127.4,309.7l-22.1-9.7l-8.2,2.7v7H81.4v-22.9h15.7v10l28.9-10h18.9l-29,9.7l30.3,13.2H127.4z"/>
			<linearGradient id="SVGID_12_" gradientUnits="userSpaceOnUse" x1="188.2762" y1="286.7912" x2="188.2762" y2="309.6726">
				<stop  offset="0.1557" style="stop-color:#CCD9D3"/>
				<stop  offset="0.6655" style="stop-color:#FFFFFF"/>
				<stop  offset="1" style="stop-color:#C9CCCD"/>
			</linearGradient>
			<path class="st12" d="M196.1,291.4v18.2h-15.7v-18.2h-21.7v-4.6h59v4.6H196.1z"/>
			<linearGradient id="SVGID_13_" gradientUnits="userSpaceOnUse" x1="246.476" y1="286.7912" x2="246.476" y2="309.6726">
				<stop  offset="0.1557" style="stop-color:#CCD9D3"/>
				<stop  offset="0.6655" style="stop-color:#FFFFFF"/>
				<stop  offset="1" style="stop-color:#C9CCCD"/>
			</linearGradient>
			<path class="st13" d="M238.6,309.7v-22.9h15.7v22.9H238.6z"/>
			<linearGradient id="SVGID_14_" gradientUnits="userSpaceOnUse" x1="305.7948" y1="286.7912" x2="305.7948" y2="309.8359">
				<stop  offset="0.1557" style="stop-color:#CCD9D3"/>
				<stop  offset="0.6655" style="stop-color:#FFFFFF"/>
				<stop  offset="1" style="stop-color:#C9CCCD"/>
			</linearGradient>
			<path class="st14" d="M312.7,309.8h-13.8l-28.8-23h17.3l18.6,16.1l18.6-16.1h16.9L312.7,309.8z"/>
		</g>
	</g>
	<g>
		<path class="st15" d="M441.7,249l3.1-3.7c2.8,2.4,5.7,3.8,9.3,3.8c3.2,0,5.2-1.5,5.2-3.7v-0.1c0-2.1-1.2-3.3-6.7-4.5
			c-6.3-1.5-9.8-3.4-9.8-8.8v-0.1c0-5.1,4.2-8.6,10.1-8.6c4.3,0,7.7,1.3,10.7,3.7l-2.8,3.9c-2.7-2-5.3-3-8-3c-3,0-4.8,1.6-4.8,3.5
			v0.1c0,2.3,1.4,3.3,7,4.6c6.2,1.5,9.5,3.8,9.5,8.7v0.1c0,5.5-4.3,8.8-10.6,8.8C449.5,253.7,445.3,252.2,441.7,249z"/>
		<path class="st15" d="M474.2,223.7h5.2v29.5h-5.2V223.7z"/>
		<path class="st15" d="M489.1,238.6L489.1,238.6c0-8.4,6.4-15.4,15.5-15.4c9.1,0,15.4,6.9,15.4,15.2v0.1c0,8.3-6.4,15.3-15.5,15.3
			S489.1,246.9,489.1,238.6z M514.6,238.6L514.6,238.6c0-5.8-4.2-10.6-10-10.6s-10,4.7-10,10.4v0.1c0,5.7,4.2,10.5,10,10.5
			C510.5,249,514.6,244.3,514.6,238.6z"/>
		<path class="st15" d="M529,240.8v-17h5.2v16.8c0,5.5,2.8,8.4,7.5,8.4c4.6,0,7.4-2.8,7.4-8.2v-17h5.2v16.8c0,8.8-5,13.3-12.7,13.3
			C533.9,253.8,529,249.3,529,240.8z"/>
		<path class="st15" d="M572.7,238.3l-10.3-14.5h6.1l7.3,10.6l7.4-10.6h6l-10.3,14.4l10.7,15.1h-6.1l-7.8-11.2l-7.8,11.2h-6
			L572.7,238.3z"/>
		<path class="st15" d="M598.1,223.7h5.2v24.8h15.5v4.7h-20.7V223.7z"/>
		<path class="st15" d="M637.9,223.5h4.8l13,29.8h-5.5l-3-7.1h-14l-3,7.1h-5.3L637.9,223.5z M645.3,241.6l-5.1-11.8l-5.1,11.8H645.3
			z"/>
		<path class="st15" d="M663.9,223.7h4.8l15.8,20.4v-20.4h5.1v29.5h-4.3l-16.3-21v21h-5.1V223.7z"/>
		<path class="st15" d="M700.4,223.7h11c9.3,0,15.7,6.4,15.7,14.7v0.1c0,8.3-6.4,14.8-15.7,14.8h-11V223.7z M711.5,248.6
			c6.2,0,10.3-4.2,10.3-10v-0.1c0-5.8-4.1-10-10.3-10h-5.8v20.1H711.5z"/>
		<path class="st15" d="M734.5,233.5c2.6-0.5,3.8-1.8,3.6-4h-2.2v-5.8h5.6v4.9c0,4.7-2.2,6.7-6.5,7L734.5,233.5z"/>
		<path class="st15" d="M749.2,249l3.1-3.7c2.8,2.4,5.7,3.8,9.3,3.8c3.2,0,5.2-1.5,5.2-3.7v-0.1c0-2.1-1.2-3.3-6.7-4.5
			c-6.3-1.5-9.8-3.4-9.8-8.8v-0.1c0-5.1,4.2-8.6,10.1-8.6c4.3,0,7.7,1.3,10.7,3.7l-2.8,3.9c-2.7-2-5.3-3-8-3c-3,0-4.8,1.6-4.8,3.5
			v0.1c0,2.3,1.4,3.3,7,4.6c6.2,1.5,9.5,3.8,9.5,8.7v0.1c0,5.5-4.3,8.8-10.6,8.8C757,253.7,752.7,252.2,749.2,249z"/>
		<path class="st15" d="M797.2,223.7h4.8l15.8,20.4v-20.4h5.1v29.5h-4.3l-16.3-21v21h-5.1V223.7z"/>
		<path class="st15" d="M833.7,223.7h21.9v4.6h-16.7v7.7h14.8v4.6h-14.8v7.9h16.9v4.6h-22.1V223.7z"/>
		<path class="st15" d="M862.8,223.7h5.6l7,21.9l7.3-22h4.4l7.3,22l7-21.9h5.4l-10.3,29.8h-4.5l-7.3-21.2l-7.3,21.2h-4.5
			L862.8,223.7z"/>
		<path class="st15" d="M912.6,249l3.1-3.7c2.8,2.4,5.7,3.8,9.3,3.8c3.2,0,5.2-1.5,5.2-3.7v-0.1c0-2.1-1.2-3.3-6.7-4.5
			c-6.3-1.5-9.8-3.4-9.8-8.8v-0.1c0-5.1,4.2-8.6,10.1-8.6c4.3,0,7.7,1.3,10.7,3.7l-2.8,3.9c-2.7-2-5.3-3-8-3c-3,0-4.8,1.6-4.8,3.5
			v0.1c0,2.3,1.4,3.3,7,4.6c6.2,1.5,9.5,3.8,9.5,8.7v0.1c0,5.5-4.3,8.8-10.6,8.8C920.4,253.7,916.1,252.2,912.6,249z"/>
		<path class="st15" d="M573,285.1L573,285.1c0-8.5,6.3-15.4,15.2-15.4c5.4,0,8.7,1.9,11.6,4.6l-3.3,3.8c-2.4-2.2-4.9-3.7-8.3-3.7
			c-5.7,0-9.8,4.6-9.8,10.4v0.1c0,5.8,4.1,10.5,9.8,10.5c3.6,0,6-1.5,8.5-3.8l3.3,3.4c-3.1,3.2-6.5,5.2-12,5.2
			C579.4,300.3,573,293.6,573,285.1z"/>
		<path class="st15" d="M608.6,270.2h5.2v12.3h14.1v-12.3h5.2v29.5h-5.2v-12.5h-14.1v12.5h-5.2V270.2z"/>
		<path class="st15" d="M654.3,270h4.8l13,29.8h-5.5l-3-7.1h-14l-3,7.1h-5.3L654.3,270z M661.8,288l-5.1-11.8l-5.1,11.8H661.8z"/>
		<path class="st15" d="M680.4,270.2h4.8l15.8,20.4v-20.4h5.1v29.5h-4.3l-16.3-21v21h-5.1V270.2z"/>
		<path class="st15" d="M716.9,270.2h4.8l15.8,20.4v-20.4h5.1v29.5h-4.3l-16.3-21v21h-5.1V270.2z"/>
		<path class="st15" d="M753.4,270.2h21.9v4.6h-16.7v7.7h14.8v4.6h-14.8v7.9h16.9v4.6h-22.1V270.2z"/>
		<path class="st15" d="M784.8,270.2h5.2V295h15.5v4.7h-20.7V270.2z"/>
	</g>
	<g>
		<path class="st15" d="M392.8,102.7h23.3v34.1l29-34.1h27.7l-31.9,36.2l32.9,48h-28l-21.2-31.3l-8.5,9.5v21.8h-23.3V102.7z"/>
		<path class="st15" d="M499.9,123.1h-25.2v-20.4h73.8v20.4h-25.2v63.7h-23.3V123.1z"/>
		<path class="st15" d="M559.2,102.7h23.4v84.2h-23.4V102.7z"/>
		<path class="st15" d="M591.3,102.7h26.1l19.1,53.3l19.1-53.3h25.6l-34.1,84.8h-21.6L591.3,102.7z"/>
		<path class="st15" d="M680.5,170.4h16v16.5h-16V170.4z"/>
		<path class="st15" d="M709.4,145v-0.2c0-23.9,17.9-43.5,43.4-43.5c15.5,0,24.9,5.4,32.9,13.1l-9.5,10.9
			c-6.7-6.3-13.9-10.5-23.6-10.5c-16.1,0-27.8,13.2-27.8,29.7v0.2c0,16.5,11.7,29.9,27.8,29.9c10.3,0,17-4.2,24.2-10.9l9.5,9.6
			c-8.8,9.1-18.4,14.9-34.1,14.9C727.7,188.3,709.4,169.2,709.4,145z"/>
		<path class="st15" d="M795.7,145v-0.2c0-23.7,18.3-43.5,44.1-43.5c25.9,0,43.9,19.6,43.9,43.3v0.2c0,23.7-18.3,43.5-44.1,43.5
			S795.7,168.7,795.7,145z M868.2,145v-0.2c0-16.4-11.9-29.9-28.6-29.9s-28.4,13.3-28.4,29.7v0.2c0,16.4,11.9,29.9,28.6,29.9
			C856.6,174.7,868.2,161.4,868.2,145z"/>
		<path class="st15" d="M901.6,102.7h15.8l25.6,39.8l25.6-39.8h15.8v84.2h-14.8v-60.4L943,166.2h-0.5l-26.3-39.4v60.1h-14.5V102.7z"
			/>
	</g>
</g>
</svg>
