<?xml version="1.0" encoding="utf-8"?>
<!-- Generator: Adobe Illustrator 24.1.0, SVG Export Plug-In . SVG Version: 6.00 Build 0)  -->
<svg version="1.1" id="Layer_1" xmlns="http://www.w3.org/2000/svg" xmlns:xlink="http://www.w3.org/1999/xlink" x="0px" y="0px"
	 viewBox="0 0 1024 284.7" style="enable-background:new 0 0 1024 284.7;" xml:space="preserve">
<style type="text/css">
	.st0{fill:url(#SVGID_1_);}
	.st1{fill:url(#SVGID_2_);}
	.st2{fill:url(#SVGID_3_);}
	.st3{fill:url(#SVGID_4_);}
	.st4{fill:url(#SVGID_5_);}
	.st5{fill:url(#SVGID_6_);}
	.st6{fill:url(#SVGID_7_);}
	.st7{fill:url(#SVGID_8_);}
	.st8{fill:url(#SVGID_9_);}
	.st9{fill:url(#SVGID_10_);}
	.st10{fill:url(#SVGID_11_);}
	.st11{fill:#10B04B;}
	.st12{fill:#1888C9;}
	.st13{fill:#6360AA;}
	.st14{fill:#CC2036;}
	.st15{fill:#F27024;}
	.st16{fill:#FAB816;}
	.st17{opacity:0.4;fill:#FFFFFF;}
	.st18{opacity:0.7;fill:url(#SVGID_12_);}
	.st19{opacity:0.6;fill:url(#SVGID_13_);}
	.st20{opacity:0.6;fill:url(#SVGID_14_);}
	.st21{opacity:0.4;fill:url(#SVGID_15_);}
	.st22{opacity:0.15;fill:url(#SVGID_16_);}
</style>
<g>
	<linearGradient id="SVGID_1_" gradientUnits="userSpaceOnUse" x1="512.1508" y1="18.4556" x2="512.1508" y2="266.1428">
		<stop  offset="3.070476e-02" style="stop-color:#363536"/>
		<stop  offset="0.5217" style="stop-color:#666666"/>
		<stop  offset="1" style="stop-color:#383738"/>
	</linearGradient>
	<rect x="22.7" y="18.5" class="st0" width="979" height="247.7"/>
	<linearGradient id="SVGID_2_" gradientUnits="userSpaceOnUse" x1="512.1508" y1="25.0406" x2="512.1508" y2="248.4304">
		<stop  offset="3.070476e-02" style="stop-color:#264A9F"/>
		<stop  offset="0.5217" style="stop-color:#4891CD"/>
		<stop  offset="1" style="stop-color:#1B3264"/>
	</linearGradient>
	<rect x="27.9" y="25" class="st1" width="968.6" height="223.4"/>
	<g>
		<linearGradient id="SVGID_3_" gradientUnits="userSpaceOnUse" x1="152.9236" y1="34.5763" x2="152.9236" y2="238.9906">
			<stop  offset="0.4427" style="stop-color:#FCFCFC"/>
			<stop  offset="0.9996" style="stop-color:#C2C3C5"/>
		</linearGradient>
		<path class="st2" d="M54.5,34.6h56.7v82.9l70.4-82.9h67.2l-77.4,87.9l80,116.5h-68l-51.4-75.9l-20.7,23.1V239H54.5V34.6z"/>
		<linearGradient id="SVGID_4_" gradientUnits="userSpaceOnUse" x1="343.0355" y1="34.5763" x2="343.0355" y2="238.9906">
			<stop  offset="0.4427" style="stop-color:#FCFCFC"/>
			<stop  offset="0.9996" style="stop-color:#C2C3C5"/>
		</linearGradient>
		<path class="st3" d="M314.7,84.2h-61.3V34.6h179.3v49.6h-61.3V239h-56.7V84.2z"/>
		<linearGradient id="SVGID_5_" gradientUnits="userSpaceOnUse" x1="535.7704" y1="34.5763" x2="535.7704" y2="238.9906">
			<stop  offset="0.4427" style="stop-color:#FCFCFC"/>
			<stop  offset="0.9996" style="stop-color:#C2C3C5"/>
		</linearGradient>
		<path class="st4" d="M507.4,84.2h-61.3V34.6h179.3v49.6h-61.3V239h-56.7V84.2z"/>
		<linearGradient id="SVGID_6_" gradientUnits="userSpaceOnUse" x1="732.4478" y1="30.4878" x2="732.4478" y2="243.0792">
			<stop  offset="0.4427" style="stop-color:#FCFCFC"/>
			<stop  offset="0.9996" style="stop-color:#C2C3C5"/>
		</linearGradient>
		<path class="st5" d="M634.5,137.4v-0.6c0-59.6,45.8-106.3,107.8-106.3c41.8,0,68.6,17.5,86.7,42.6l-42.6,33
			c-11.7-14.6-25.1-23.9-44.7-23.9c-28.6,0-48.8,24.2-48.8,54v0.6c0,30.7,20.1,54.6,48.8,54.6c21.3,0,33.9-9.9,46.1-24.8l42.6,30.4
			c-19.3,26.6-45.3,46.1-90.5,46.1C681.5,243.1,634.5,198.4,634.5,137.4z"/>
	</g>
	<g>
		<linearGradient id="SVGID_7_" gradientUnits="userSpaceOnUse" x1="153.0196" y1="36.7058" x2="153.0196" y2="241.1201">
			<stop  offset="3.029735e-02" style="stop-color:#97999C"/>
			<stop  offset="6.983578e-02" style="stop-color:#A6A8AA"/>
			<stop  offset="0.1798" style="stop-color:#CBCCCE"/>
			<stop  offset="0.2821" style="stop-color:#E6E6E7"/>
			<stop  offset="0.3728" style="stop-color:#F6F6F7"/>
			<stop  offset="0.4427" style="stop-color:#FCFCFC"/>
			<stop  offset="0.9996" style="stop-color:#C2C3C5"/>
		</linearGradient>
		<path class="st6" d="M54.6,36.7h56.7v82.9l70.4-82.9h67.2l-77.4,87.9l80,116.5h-68L132,165.2l-20.7,23.1v52.9H54.6V36.7z"/>
		<linearGradient id="SVGID_8_" gradientUnits="userSpaceOnUse" x1="343.1314" y1="36.7058" x2="343.1314" y2="241.1201">
			<stop  offset="3.029735e-02" style="stop-color:#97999C"/>
			<stop  offset="6.983578e-02" style="stop-color:#A6A8AA"/>
			<stop  offset="0.1798" style="stop-color:#CBCCCE"/>
			<stop  offset="0.2821" style="stop-color:#E6E6E7"/>
			<stop  offset="0.3728" style="stop-color:#F6F6F7"/>
			<stop  offset="0.4427" style="stop-color:#FCFCFC"/>
			<stop  offset="0.9996" style="stop-color:#C2C3C5"/>
		</linearGradient>
		<path class="st7" d="M314.8,86.3h-61.3V36.7h179.3v49.6h-61.3v154.8h-56.7V86.3z"/>
		<linearGradient id="SVGID_9_" gradientUnits="userSpaceOnUse" x1="535.8664" y1="36.7058" x2="535.8664" y2="241.1201">
			<stop  offset="3.029735e-02" style="stop-color:#97999C"/>
			<stop  offset="6.983578e-02" style="stop-color:#A6A8AA"/>
			<stop  offset="0.1798" style="stop-color:#CBCCCE"/>
			<stop  offset="0.2821" style="stop-color:#E6E6E7"/>
			<stop  offset="0.3728" style="stop-color:#F6F6F7"/>
			<stop  offset="0.4427" style="stop-color:#FCFCFC"/>
			<stop  offset="0.9996" style="stop-color:#C2C3C5"/>
		</linearGradient>
		<path class="st8" d="M507.5,86.3h-61.3V36.7h179.3v49.6h-61.3v154.8h-56.7V86.3z"/>
		<linearGradient id="SVGID_10_" gradientUnits="userSpaceOnUse" x1="732.5438" y1="32.6173" x2="732.5438" y2="245.2086">
			<stop  offset="3.029735e-02" style="stop-color:#97999C"/>
			<stop  offset="6.983578e-02" style="stop-color:#A6A8AA"/>
			<stop  offset="0.1798" style="stop-color:#CBCCCE"/>
			<stop  offset="0.2821" style="stop-color:#E6E6E7"/>
			<stop  offset="0.3728" style="stop-color:#F6F6F7"/>
			<stop  offset="0.4427" style="stop-color:#FCFCFC"/>
			<stop  offset="0.9996" style="stop-color:#C2C3C5"/>
		</linearGradient>
		<path class="st9" d="M634.6,139.5v-0.6c0-59.6,45.8-106.3,107.8-106.3c41.8,0,68.6,17.5,86.7,42.6l-42.6,33
			c-11.7-14.6-25.1-23.9-44.7-23.9c-28.6,0-48.8,24.2-48.8,54v0.6c0,30.7,20.1,54.6,48.8,54.6c21.3,0,33.9-9.9,46.1-24.8l42.6,30.4
			c-19.3,26.6-45.3,46.1-90.5,46.1C681.6,245.2,634.6,200.5,634.6,139.5z"/>
	</g>
	<g>
		<g>
			<linearGradient id="SVGID_11_" gradientUnits="userSpaceOnUse" x1="885.9854" y1="120.1355" x2="885.9854" y2="238.9906">
				<stop  offset="3.070476e-02" style="stop-color:#FEFDFE"/>
				<stop  offset="0.5217" style="stop-color:#E6E6E6"/>
				<stop  offset="1" style="stop-color:#FFFFFF"/>
			</linearGradient>
			<path class="st10" d="M986.9,212.3c-1.3-17-17.1-23.4-25.5-22c7.1-4,16.7-22.7,2.1-37.1c-11.2-11-26-6.9-31.2-2.1
				c2.8-9.1-1.7-28.2-20.1-30.7c-16.8-2.4-24.1,9.6-26.2,15.1c-3.2-7.9-10.9-16.6-25.3-15.1c-18.3,1.7-24,19.4-21.3,29.8
				c-7.3-4.8-20.1-7.4-30.5,2.4c-14.4,13.5-6.5,32.8,1.2,37.3c-8.5-0.8-22.1,4.9-24.8,19.8c-3.4,18.5,11,29.3,24.8,29.3H963
				C979.1,239,988.1,225.3,986.9,212.3z M811.7,155.4c11.2-9.8,26.9-6.1,33.3,9l28.3,64.2l-58.1-39.7
				C800.8,179,803.4,162.5,811.7,155.4z M810,235.4c-13.8,0.1-24.6-12.5-20.3-27.9c5.2-13.4,19.7-18.5,31.9-10.2l54.5,38H810z
				 M883.7,149l-10.4,72l-29-68.5c-7.1-16.6,7.9-28.2,17.2-28.3C872.4,122.9,886.2,131.2,883.7,149z M961.1,156.3
				c7.3,7.7,9.9,22.9-3.8,32.1l-58.1,39.9l27.4-63.5C935.4,145,954.1,148.9,961.1,156.3z M896.9,147.8c-0.3-1.5-3.2-1.5-3.3-1.4
				h-5.4c-0.6-16.2,12-23.1,22.2-22.4c11,0.5,23.8,13.3,17.5,28.6L899,221l-9.2-61.9C888.4,149.7,894.9,149.5,896.9,147.8z
				 M963.5,235.4h-67.1l54.5-38c13.1-9.2,27.7-0.7,31.2,10.9C986.3,221.3,977.3,235.5,963.5,235.4z"/>
			<path class="st11" d="M963.7,235.7h-67.1l54.6-38c13.1-9.2,27.7-0.7,31.2,10.9C986.5,221.6,977.4,235.7,963.7,235.7L963.7,235.7z
				"/>
			<path class="st12" d="M957.5,188.7l-58.1,39.9l27.4-63.5c8.7-19.9,27.4-15.9,34.5-8.5C968.6,164.3,971.1,179.5,957.5,188.7
				L957.5,188.7z"/>
			<path class="st13" d="M928,152.8l-28.8,68.5l-9.2-61.9c-1.5-9.5,5-9.7,7.1-11.3c-0.3-1.5-3.3-1.5-3.3-1.4h-5.4
				c-0.6-16.2,12-23.1,22.2-22.4C921.6,124.7,934.3,137.5,928,152.8L928,152.8z"/>
			<path class="st14" d="M883.8,149.3l-10.4,72l-29.1-68.5c-7.1-16.6,7.9-28.2,17.2-28.3C872.6,123.2,886.3,131.4,883.8,149.3
				L883.8,149.3z"/>
			<path class="st15" d="M845.1,164.6l28.3,64.2l-58.1-39.7c-14.4-9.9-11.9-26.4-3.5-33.5C823,145.8,838.7,149.5,845.1,164.6
				L845.1,164.6z"/>
			<path class="st16" d="M789.8,207.8c5.2-13.4,19.7-18.5,31.9-10.2l54.6,38h-66.1C796.4,235.7,785.6,223.1,789.8,207.8L789.8,207.8
				z"/>
		</g>
		<path class="st17" d="M794,206.1c0,0,5-10.1,16.8-9.6c5.9,0.2,16.1,8.3,16.1,8.3l35.6,24.2l-40.4-23.5
			C822.2,205.5,808.1,197.6,794,206.1z"/>
		<linearGradient id="SVGID_12_" gradientUnits="userSpaceOnUse" x1="910.2621" y1="212.3859" x2="977.7626" y2="212.3859">
			<stop  offset="3.222660e-02" style="stop-color:#FFFFFF;stop-opacity:0"/>
			<stop  offset="1" style="stop-color:#FFFFFF"/>
		</linearGradient>
		<path class="st18" d="M977.8,205.7c0,0-5-9.8-16.5-9.2c-5.7,0.3-15.7,8.2-15.7,8.2l-35.3,23.7l39.9-23
			C950.2,205.3,963.9,197.5,977.8,205.7z"/>
		<linearGradient id="SVGID_13_" gradientUnits="userSpaceOnUse" x1="911.1241" y1="221.0018" x2="955.734" y2="155.4214">
			<stop  offset="3.222660e-02" style="stop-color:#FFFFFF;stop-opacity:0"/>
			<stop  offset="1" style="stop-color:#FFFFFF"/>
		</linearGradient>
		<path class="st19" d="M955.8,155c5.7,3.3,10.8,13,5.9,21.9c-1.1-4-3.5-7.4-6.2-9.3c-6.9-5.4-21.5-1.6-26.7,9l-21.5,38.1l23-51.3
			C935.8,150.9,948.5,150.1,955.8,155z"/>
		<linearGradient id="SVGID_14_" gradientUnits="userSpaceOnUse" x1="858.1171" y1="211.7566" x2="813.8887" y2="154.1833">
			<stop  offset="3.222660e-02" style="stop-color:#FFFFFF;stop-opacity:0"/>
			<stop  offset="1" style="stop-color:#FFFFFF"/>
		</linearGradient>
		<path class="st20" d="M815.9,155.3c-5.8,3.4-10.9,13.3-5.8,22.3c1.1-4.1,3.5-7.6,6.3-9.5c7-5.5,20-5.8,26.7,6.3l22.2,41.2
			l-23.2-52C836.3,150.9,823.3,150.3,815.9,155.3z"/>
		
			<linearGradient id="SVGID_15_" gradientUnits="userSpaceOnUse" x1="398.5624" y1="915.4891" x2="353.758" y2="857.1661" gradientTransform="matrix(0.6863 0.7273 -0.7273 0.6863 1292.8362 -720.5421)">
			<stop  offset="3.222660e-02" style="stop-color:#FFFFFF;stop-opacity:0"/>
			<stop  offset="1" style="stop-color:#FFFFFF"/>
		</linearGradient>
		<path class="st21" d="M912.8,127.3c-6.6-1.9-17.4,1.3-20.5,11.2c3.7-2,8-2.7,11.3-2c8.9,1.3,18.2,10.7,13.9,24l-14.9,45l22.2-53.3
			C930.2,139.3,921.6,129.3,912.8,127.3z"/>
		
			<linearGradient id="SVGID_16_" gradientUnits="userSpaceOnUse" x1="1181.0513" y1="86.6355" x2="1136.2469" y2="28.3125" gradientTransform="matrix(-0.6863 0.7273 0.7273 0.6863 1619.198 -720.5421)">
			<stop  offset="3.222660e-02" style="stop-color:#FFFFFF;stop-opacity:0"/>
			<stop  offset="1" style="stop-color:#FFFFFF"/>
		</linearGradient>
		<path class="st22" d="M859.4,127.5c6.6-1.9,17.4,1.3,20.5,11.2c-3.7-2-8-2.7-11.3-2c-8.9,1.3-18.2,10.7-13.9,24l14.9,45
			l-22.2-53.3C842,139.5,850.5,129.5,859.4,127.5z"/>
	</g>
</g>
</svg>
