<?xml version="1.0" encoding="utf-8"?>
<!-- Generator: Adobe Illustrator 24.1.0, SVG Export Plug-In . SVG Version: 6.00 Build 0)  -->
<svg version="1.1" id="Layer_1" xmlns="http://www.w3.org/2000/svg" xmlns:xlink="http://www.w3.org/1999/xlink" x="0px" y="0px"
	 viewBox="0 0 1024 349.9" style="enable-background:new 0 0 1024 349.9;" xml:space="preserve">
<style type="text/css">
	.st0{fill:#FFFFFF;}
	.st1{fill:url(#SVGID_1_);}
	.st2{fill:url(#SVGID_2_);}
	.st3{fill:url(#SVGID_3_);}
	.st4{fill:url(#SVGID_4_);}
	.st5{fill:url(#SVGID_5_);}
	.st6{fill:url(#SVGID_6_);}
	.st7{fill:url(#SVGID_7_);}
	.st8{fill:url(#SVGID_8_);}
	.st9{fill:url(#SVGID_9_);}
	.st10{fill:url(#SVGID_10_);}
	.st11{fill:url(#SVGID_11_);}
	.st12{fill:#10B04B;}
	.st13{fill:#1888C9;}
	.st14{fill:#6360AA;}
	.st15{fill:#CC2036;}
	.st16{fill:#F27024;}
	.st17{fill:#FAB816;}
</style>
<g>
	<g>
		<path class="st0" d="M316.6,191.3l-29-39.8l-10.8,11.2v28.6h-20.6V97.8h20.6v40.8l37.9-40.8h24.8l-38,39.6l39.8,53.8h-24.7V191.3z
			"/>
		<path class="st0" d="M427.1,176.9c-1.6,3.2-4,5.9-7.1,8s-6.8,3.7-11.1,4.8c-4.3,1.1-9.1,1.6-14.3,1.6h-44.4V97.8h43.3
			c9.6,0,17.1,2.2,22.6,6.5c5.5,4.4,8.2,10.2,8.2,17.6v0.3c0,2.7-0.3,5-1,7.1c-0.7,2-1.5,3.9-2.7,5.5c-1.1,1.6-2.4,3.1-3.8,4.3
			c-1.5,1.2-3,2.3-4.7,3.2c5.4,2,9.7,4.8,12.8,8.3c3.1,3.5,4.7,8.4,4.7,14.6v0.3C429.6,169.9,428.8,173.7,427.1,176.9z M404.1,125.5
			c0-3.1-1.2-5.5-3.5-7.1s-5.7-2.5-10-2.5h-20.3v19.8h19c4.5,0,8.1-0.8,10.8-2.3c2.7-1.6,4-4.1,4-7.5V125.5z M409.3,162.8
			c0-3.1-1.2-5.6-3.6-7.4c-2.4-1.8-6.3-2.7-11.6-2.7h-23.8v20.6h24.4c4.5,0,8.1-0.8,10.7-2.5c2.6-1.6,3.9-4.2,3.9-7.7V162.8z"/>
		<path class="st0" d="M495.3,173.8c-1.6,4.2-3.9,7.7-6.7,10.5c-2.9,2.8-6.4,4.9-10.5,6.3c-4.1,1.4-8.6,2.1-13.5,2.1
			c-7.3,0-13.4-1.4-18.4-4.1c-4.9-2.8-9-6-12.2-9.9l12.9-14.4c2.7,2.9,5.4,5.2,8.1,6.9c2.7,1.6,5.7,2.5,9,2.5c3.9,0,7-1.2,9.2-3.7
			c2.2-2.4,3.3-6.4,3.3-11.8V97.8h21.1V159C497.7,164.7,496.9,169.6,495.3,173.8z"/>
		<path class="st0" d="M572,191.3l-20-29.9h-16.1v29.9h-20.6V97.8H558c11.1,0,19.8,2.7,26,8.1s9.3,13,9.3,22.7v0.3
			c0,7.6-1.8,13.7-5.5,18.5s-8.5,8.3-14.5,10.5l22.8,33.4L572,191.3L572,191.3z M572.4,129.7c0-4.4-1.4-7.8-4.3-10
			c-2.8-2.2-6.8-3.3-11.9-3.3h-20.4v26.8h20.8c5.1,0,9-1.2,11.7-3.6c2.7-2.4,4.1-5.6,4.1-9.6L572.4,129.7L572.4,129.7z"/>
		<path class="st0" d="M663.8,122.3c-1.5-1.2-3-2.2-4.4-3.1s-2.9-1.7-4.4-2.3c-1.5-0.6-3.1-1.1-4.8-1.5s-3.5-0.5-5.5-0.5
			c-2.9,0-5.5,0.6-7.7,1.7s-4,2.6-5.6,4.6c-1.6,1.9-2.8,4.2-3.7,6.9s-1.5,5.6-1.9,8.6c2.3-1.5,5-2.9,7.9-4.1c3-1.2,6.8-1.9,11.4-1.9
			c4.6,0,8.9,0.6,12.9,1.9c4,1.3,7.5,3.2,10.4,5.7s5.2,5.6,6.9,9.3s2.5,8.1,2.5,12.9c0,4.8-0.9,9.2-2.7,13.1
			c-1.8,4-4.3,7.4-7.5,10.3c-3.2,2.9-6.9,5.1-11.3,6.7c-4.4,1.6-9.1,2.3-14.1,2.3c-6.1,0-11.3-0.8-15.6-2.5s-8.1-4.2-11.3-7.5
			c-3.4-3.4-6.1-7.8-8.1-13.3s-3-12.9-3-22.2c0-7.2,0.8-13.9,2.5-20.2c1.6-6.2,4.2-11.6,7.5-16.2c3.4-4.6,7.7-8.2,12.8-10.8
			c5.2-2.6,11.2-3.9,18.2-3.9c3.2,0,6.1,0.2,8.8,0.7c2.7,0.4,5.2,1.1,7.5,2s4.5,2,6.7,3.2c2.1,1.3,4.2,2.7,6.3,4.3L663.8,122.3z
			 M653.5,151.5c-2.9-2.6-6.9-3.9-12-3.9s-9,1.3-11.9,3.8c-2.8,2.5-4.2,5.8-4.2,9.8c0,4.1,1.5,7.5,4.4,10.1s6.9,3.9,12,3.9
			s9-1.3,11.9-3.9c2.8-2.6,4.2-5.9,4.2-10C657.8,157.4,656.4,154.1,653.5,151.5z"/>
		<path class="st0" d="M692.5,177.3h12.3v14h-12.3V177.3z"/>
		<path class="st0" d="M715.4,144.8v-0.3c0-26.4,19.8-48.3,47.2-48.3c16.9,0,27.1,6,36.4,14.8l-7.2,7.7
			c-7.9-7.5-16.7-12.8-29.4-12.8c-20.7,0-36.2,16.8-36.2,38.3v0.3c0,21.6,15.6,38.6,36.2,38.6c12.8,0,21.2-4.9,30.2-13.5l6.9,6.8
			c-9.7,9.9-20.4,16.4-37.4,16.4C735.2,192.9,715.4,171.6,715.4,144.8z"/>
		<path class="st0" d="M807.8,144.8v-0.3c0-25.8,19.4-48.3,47.8-48.3s47.5,22.3,47.5,48v0.3c0,25.8-19.4,48.3-47.8,48.3
			S807.8,170.6,807.8,144.8z M892.2,144.8v-0.3c0-21.2-15.5-38.6-36.8-38.6c-21.4,0-36.6,17.1-36.6,38.3v0.3
			c0,21.2,15.5,38.6,36.8,38.6C877,183.1,892.2,166,892.2,144.8z"/>
		<path class="st0" d="M922.1,97.8h10.7l34,51l34-51h10.7v93.4H1001v-75.7l-34,50h-0.5l-34-49.9v75.5h-10.3V97.8H922.1z"/>
	</g>
	<g>
		<path class="st0" d="M267,238.1l-14.6-22.2h7.6l10.3,16.2l10.4-16.2h7.4L273.5,238v14.6H267V238.1z"/>
		<path class="st0" d="M287.7,234.3v-0.1c0-10.3,8-19,19.2-19c11.3,0,19.1,8.5,19.1,18.9v0.1c0,10.3-8,19-19.2,19
			C295.6,253.1,287.7,244.6,287.7,234.3z M319.3,234.3v-0.1c0-7.1-5.2-13.1-12.5-13.1s-12.4,5.8-12.4,12.9v0.1
			c0,7.1,5.2,13.1,12.5,13.1C314.2,247.2,319.3,241.4,319.3,234.3z"/>
		<path class="st0" d="M332,237v-21.1h6.4v20.9c0,6.8,3.5,10.5,9.3,10.5c5.7,0,9.2-3.5,9.2-10.2V216h6.4v20.8
			c0,11-6.2,16.5-15.8,16.5C338.1,253.1,332,247.6,332,237z"/>
		<path class="st0" d="M370.9,215.8h16.4c4.6,0,8.2,1.4,10.6,3.7c1.9,2,3,4.7,3,7.9v0.1c0,6-3.6,9.6-8.8,11.1l9.9,13.9h-7.6l-9-12.8
			h-8.1v12.8h-6.4V215.8z M386.8,234c4.6,0,7.5-2.4,7.5-6.1v-0.1c0-3.9-2.8-6.1-7.6-6.1h-9.4V234H386.8z"/>
		<path class="st0" d="M419.1,215.8h7l8.8,27.2l9-27.3h5.5l9,27.3l8.8-27.2h6.8l-12.8,37h-5.6l-9-26.4l-9,26.4H432L419.1,215.8z"/>
		<path class="st0" d="M479.1,215.8h27.2v5.8h-20.8v9.5H504v5.8h-18.4v9.9h21v5.8h-27.5V215.8z"/>
		<path class="st0" d="M525.9,215.6h6l16.1,37h-6.8l-3.7-8.9h-17.3l-3.8,8.9h-6.6L525.9,215.6z M535.2,237.9l-6.3-14.7l-6.3,14.7
			H535.2z"/>
		<path class="st0" d="M557.3,221.8h-11.6v-6h29.8v6h-11.6v30.7h-6.5v-30.7H557.3z"/>
		<path class="st0" d="M581,215.8h6.4v15.3h17.5v-15.3h6.4v36.7h-6.4V237h-17.5v15.5H581V215.8z"/>
		<path class="st0" d="M619.5,215.8h27.2v5.8h-20.8v9.5h18.4v5.8h-18.4v9.9h21v5.8h-27.5L619.5,215.8L619.5,215.8z"/>
		<path class="st0" d="M653.3,215.8h16.4c4.6,0,8.2,1.4,10.6,3.7c1.9,2,3,4.7,3,7.9v0.1c0,6-3.6,9.6-8.8,11.1l9.9,13.9h-7.6l-9-12.8
			h-8.1v12.8h-6.4L653.3,215.8L653.3,215.8z M669.2,234c4.6,0,7.5-2.4,7.5-6.1v-0.1c0-3.9-2.8-6.1-7.6-6.1h-9.4V234H669.2z"/>
		<path class="st0" d="M717.3,215.6h6l16.1,37h-6.8l-3.7-8.9h-17.3l-3.8,8.9h-6.6L717.3,215.6z M726.5,237.9l-6.3-14.7l-6.3,14.7
			H726.5z"/>
		<path class="st0" d="M742.5,237v-21.1h6.4v20.9c0,6.8,3.5,10.5,9.3,10.5c5.7,0,9.2-3.5,9.2-10.2V216h6.4v20.8
			c0,11-6.2,16.5-15.8,16.5C748.6,253.1,742.5,247.6,742.5,237z"/>
		<path class="st0" d="M790.5,221.8h-11.6v-6h29.8v6H797v30.7h-6.5V221.8z"/>
		<path class="st0" d="M814.1,215.8h6.4v15.3H838v-15.3h6.4v36.7H838V237h-17.5v15.5h-6.4V215.8z"/>
		<path class="st0" d="M851,234.3v-0.1c0-10.3,8-19,19.2-19s19.1,8.5,19.1,18.9v0.1c0,10.3-8,19-19.2,19
			C858.9,253.1,851,244.6,851,234.3z M882.6,234.3v-0.1c0-7.1-5.2-13.1-12.5-13.1s-12.4,5.8-12.4,12.9v0.1c0,7.1,5.2,13.1,12.5,13.1
			C877.5,247.2,882.6,241.4,882.6,234.3z"/>
		<path class="st0" d="M895.9,215.8h16.4c4.6,0,8.2,1.4,10.6,3.7c1.9,2,3,4.7,3,7.9v0.1c0,6-3.6,9.6-8.8,11.1l9.9,13.9h-7.6l-9-12.8
			h-8.1v12.8h-6.4L895.9,215.8L895.9,215.8z M911.8,234c4.6,0,7.5-2.4,7.5-6.1v-0.1c0-3.9-2.8-6.1-7.6-6.1h-9.4V234H911.8z"/>
		<path class="st0" d="M932.8,215.8h6.4v36.7h-6.4V215.8z"/>
		<path class="st0" d="M956.8,221.8h-11.6v-6H975v6h-11.6v30.7h-6.5v-30.7H956.8z"/>
		<path class="st0" d="M991.2,238.1l-14.6-22.2h7.6l10.3,16.2l10.4-16.2h7.4L997.7,238v14.6h-6.5L991.2,238.1L991.2,238.1z"/>
	</g>
	<g>
		<path d="M219.1,328.6H22.7v-293h196.5L219.1,328.6L219.1,328.6z M26.2,325.1h189.4v-286H26.2V325.1z"/>
		
			<linearGradient id="SVGID_1_" gradientUnits="userSpaceOnUse" x1="96.9625" y1="51.206" x2="240.4271" y2="299.694" gradientTransform="matrix(1 0 0 -1 0 350)">
			<stop  offset="0" style="stop-color:#26467A"/>
			<stop  offset="0.4941" style="stop-color:#4690CE"/>
			<stop  offset="0.92" style="stop-color:#2953A5"/>
			<stop  offset="1" style="stop-color:#23479D"/>
		</linearGradient>
		<polygon class="st1" points="217.9,37.3 24.4,256.9 217.9,256.9 		"/>
		
			<linearGradient id="SVGID_2_" gradientUnits="userSpaceOnUse" x1="121.15" y1="93.1" x2="121.15" y2="23.2" gradientTransform="matrix(1 0 0 -1 0 350)">
			<stop  offset="0" style="stop-color:#26467A"/>
			<stop  offset="9.304175e-02" style="stop-color:#284B80"/>
			<stop  offset="0.2173" style="stop-color:#2F5A91"/>
			<stop  offset="0.3586" style="stop-color:#3973AD"/>
			<stop  offset="0.4941" style="stop-color:#4690CE"/>
			<stop  offset="0.5954" style="stop-color:#3C7AC0"/>
			<stop  offset="0.7557" style="stop-color:#2E5EAD"/>
			<stop  offset="0.8961" style="stop-color:#264DA1"/>
			<stop  offset="1" style="stop-color:#23479D"/>
		</linearGradient>
		<rect x="24.4" y="256.9" class="st2" width="193.5" height="69.9"/>
		
			<linearGradient id="SVGID_3_" gradientUnits="userSpaceOnUse" x1="49.4177" y1="327.144" x2="144.5073" y2="162.444" gradientTransform="matrix(1 0 0 -1 0 350)">
			<stop  offset="0" style="stop-color:#8F9296"/>
			<stop  offset="4.050539e-02" style="stop-color:#A2A4A8"/>
			<stop  offset="0.1254" style="stop-color:#C3C5C7"/>
			<stop  offset="0.2124" style="stop-color:#DEDEE0"/>
			<stop  offset="0.3014" style="stop-color:#F0F1F1"/>
			<stop  offset="0.3935" style="stop-color:#FBFBFC"/>
			<stop  offset="0.4935" style="stop-color:#FFFFFF"/>
		</linearGradient>
		<polygon class="st3" points="217.9,37.3 24.4,37.3 24.4,256.9 		"/>
		<g>
			
				<linearGradient id="SVGID_4_" gradientUnits="userSpaceOnUse" x1="55.65" y1="84" x2="55.65" y2="32.7" gradientTransform="matrix(1 0 0 -1 0 350)">
				<stop  offset="0" style="stop-color:#8F9296"/>
				<stop  offset="4.340150e-02" style="stop-color:#ABADB0"/>
				<stop  offset="9.330442e-02" style="stop-color:#C2C4C6"/>
				<stop  offset="0.1504" style="stop-color:#D4D6D8"/>
				<stop  offset="0.2181" style="stop-color:#E1E3E4"/>
				<stop  offset="0.3065" style="stop-color:#E9EAEB"/>
				<stop  offset="0.4941" style="stop-color:#EBECED"/>
				<stop  offset="0.6897" style="stop-color:#E9EAEB"/>
				<stop  offset="0.7796" style="stop-color:#E1E3E4"/>
				<stop  offset="0.848" style="stop-color:#D5D6D8"/>
				<stop  offset="0.9054" style="stop-color:#C2C4C7"/>
				<stop  offset="0.9554" style="stop-color:#ABAEB1"/>
				<stop  offset="1" style="stop-color:#8F9296"/>
			</linearGradient>
			<path class="st4" d="M65.5,317.3l-15.9-21.9l-5.9,6.2v15.7H32.3V266h11.3v22.4L64.4,266H78l-20.9,21.8L79,317.3H65.5z"/>
			
				<linearGradient id="SVGID_5_" gradientUnits="userSpaceOnUse" x1="104" y1="84" x2="104" y2="32.7" gradientTransform="matrix(1 0 0 -1 0 350)">
				<stop  offset="0" style="stop-color:#8F9296"/>
				<stop  offset="4.340150e-02" style="stop-color:#ABADB0"/>
				<stop  offset="9.330442e-02" style="stop-color:#C2C4C6"/>
				<stop  offset="0.1504" style="stop-color:#D4D6D8"/>
				<stop  offset="0.2181" style="stop-color:#E1E3E4"/>
				<stop  offset="0.3065" style="stop-color:#E9EAEB"/>
				<stop  offset="0.4941" style="stop-color:#EBECED"/>
				<stop  offset="0.6897" style="stop-color:#E9EAEB"/>
				<stop  offset="0.7796" style="stop-color:#E1E3E4"/>
				<stop  offset="0.848" style="stop-color:#D5D6D8"/>
				<stop  offset="0.9054" style="stop-color:#C2C4C7"/>
				<stop  offset="0.9554" style="stop-color:#ABAEB1"/>
				<stop  offset="1" style="stop-color:#8F9296"/>
			</linearGradient>
			<path class="st5" d="M124.4,309.4c-0.9,1.8-2.2,3.2-3.9,4.4c-1.7,1.2-3.7,2.1-6.1,2.6c-2.4,0.6-5,0.9-7.9,0.9H82.2V266H106
				c5.3,0,9.4,1.2,12.4,3.6s4.5,5.6,4.5,9.7v0.1c0,1.5-0.2,2.8-0.5,3.9c-0.4,1.1-0.9,2.1-1.5,3s-1.3,1.7-2.1,2.4
				c-0.8,0.7-1.7,1.3-2.6,1.8c3,1.1,5.3,2.7,7,4.6s2.6,4.6,2.6,8v0.1C125.8,305.6,125.3,307.6,124.4,309.4z M111.8,281.2
				c0-1.7-0.6-3-1.9-3.9s-3.1-1.4-5.5-1.4H93.2v10.9h10.4c2.5,0,4.5-0.4,5.9-1.3c1.5-0.9,2.2-2.2,2.2-4.1v-0.2H111.8z M114.6,301.7
				c0-1.7-0.7-3.1-2-4.1s-3.4-1.5-6.4-1.5h-13v11.3h13.4c2.5,0,4.4-0.5,5.9-1.4C113.9,305.1,114.6,303.7,114.6,301.7L114.6,301.7z"
				/>
			
				<linearGradient id="SVGID_6_" gradientUnits="userSpaceOnUse" x1="143.8" y1="84" x2="143.8" y2="31.9251" gradientTransform="matrix(1 0 0 -1 0 350)">
				<stop  offset="0" style="stop-color:#8F9296"/>
				<stop  offset="4.340150e-02" style="stop-color:#ABADB0"/>
				<stop  offset="9.330442e-02" style="stop-color:#C2C4C6"/>
				<stop  offset="0.1504" style="stop-color:#D4D6D8"/>
				<stop  offset="0.2181" style="stop-color:#E1E3E4"/>
				<stop  offset="0.3065" style="stop-color:#E9EAEB"/>
				<stop  offset="0.4941" style="stop-color:#EBECED"/>
				<stop  offset="0.6897" style="stop-color:#E9EAEB"/>
				<stop  offset="0.7796" style="stop-color:#E1E3E4"/>
				<stop  offset="0.848" style="stop-color:#D5D6D8"/>
				<stop  offset="0.9054" style="stop-color:#C2C4C7"/>
				<stop  offset="0.9554" style="stop-color:#ABAEB1"/>
				<stop  offset="1" style="stop-color:#8F9296"/>
			</linearGradient>
			<path class="st6" d="M160,307.7c-0.9,2.3-2.1,4.2-3.7,5.8c-1.6,1.5-3.5,2.7-5.8,3.4c-2.2,0.8-4.7,1.1-7.4,1.1
				c-4,0-7.4-0.8-10.1-2.3c-2.7-1.5-5-3.3-6.7-5.4l7.1-7.9c1.5,1.6,2.9,2.9,4.4,3.8s3.1,1.4,5,1.4c2.2,0,3.8-0.7,5.1-2
				c1.2-1.3,1.8-3.5,1.8-6.5V266h11.6v33.6C161.3,302.7,160.9,305.4,160,307.7z"/>
			
				<linearGradient id="SVGID_7_" gradientUnits="userSpaceOnUse" x1="191.4" y1="84" x2="191.4" y2="32.6583" gradientTransform="matrix(1 0 0 -1 0 350)">
				<stop  offset="0" style="stop-color:#8F9296"/>
				<stop  offset="4.340150e-02" style="stop-color:#ABADB0"/>
				<stop  offset="9.330442e-02" style="stop-color:#C2C4C6"/>
				<stop  offset="0.1504" style="stop-color:#D4D6D8"/>
				<stop  offset="0.2181" style="stop-color:#E1E3E4"/>
				<stop  offset="0.3065" style="stop-color:#E9EAEB"/>
				<stop  offset="0.4941" style="stop-color:#EBECED"/>
				<stop  offset="0.6897" style="stop-color:#E9EAEB"/>
				<stop  offset="0.7796" style="stop-color:#E1E3E4"/>
				<stop  offset="0.848" style="stop-color:#D5D6D8"/>
				<stop  offset="0.9054" style="stop-color:#C2C4C7"/>
				<stop  offset="0.9554" style="stop-color:#ABAEB1"/>
				<stop  offset="1" style="stop-color:#8F9296"/>
			</linearGradient>
			<path class="st7" d="M200.4,317.3l-11-16.4h-8.9v16.4h-11.3V266h23.5c6.1,0,10.9,1.5,14.3,4.5c3.4,3,5.1,7.1,5.1,12.5v0.1
				c0,4.2-1,7.5-3,10.2c-2,2.6-4.7,4.5-8,5.8l12.5,18.3h-13.2V317.3z M200.6,283.5c0-2.4-0.8-4.3-2.3-5.5c-1.6-1.2-3.7-1.8-6.5-1.8
				h-11.2v14.7H192c2.8,0,4.9-0.7,6.4-2s2.2-3.1,2.2-5.3L200.6,283.5L200.6,283.5z"/>
		</g>
		<g>
			
				<linearGradient id="SVGID_8_" gradientUnits="userSpaceOnUse" x1="91.2575" y1="304.143" x2="201.6835" y2="112.8795" gradientTransform="matrix(1 0 0 -1 0 350)">
				<stop  offset="0" style="stop-color:#8F9296"/>
				<stop  offset="8.785356e-02" style="stop-color:#95989C"/>
				<stop  offset="0.2052" style="stop-color:#A6A8AC"/>
				<stop  offset="0.3392" style="stop-color:#C2C4C6"/>
				<stop  offset="0.4847" style="stop-color:#E8E9EA"/>
				<stop  offset="0.4941" style="stop-color:#EBECED"/>
				<stop  offset="0.6216" style="stop-color:#D1D2D4"/>
				<stop  offset="0.874" style="stop-color:#A1A4A7"/>
				<stop  offset="1" style="stop-color:#8F9296"/>
			</linearGradient>
			<path class="st8" d="M145.1,90.5L191,17.6h-50.8l-53.8,82.6l0,0c-28.7,37.3-24.5,73.5-24.5,73.5c0,46,37.3,83.2,83.2,83.2
				c46,0,83.2-37.3,83.2-83.2C228.3,127.7,191.1,90.5,145.1,90.5z M145.1,219.6c-25.3,0-45.9-20.5-45.9-45.9
				c0-25.3,20.5-45.9,45.9-45.9c25.3,0,45.9,20.5,45.9,45.9C191,199,170.5,219.6,145.1,219.6z"/>
			
				<linearGradient id="SVGID_9_" gradientUnits="userSpaceOnUse" x1="60.5127" y1="212.75" x2="229.5" y2="212.75" gradientTransform="matrix(1 0 0 -1 0 350)">
				<stop  offset="0" style="stop-color:#8F9296"/>
				<stop  offset="8.785356e-02" style="stop-color:#95989C"/>
				<stop  offset="0.2052" style="stop-color:#A6A8AC"/>
				<stop  offset="0.3392" style="stop-color:#C2C4C6"/>
				<stop  offset="0.4847" style="stop-color:#E8E9EA"/>
				<stop  offset="0.4941" style="stop-color:#EBECED"/>
				<stop  offset="0.6216" style="stop-color:#D1D2D4"/>
				<stop  offset="0.874" style="stop-color:#A1A4A7"/>
				<stop  offset="1" style="stop-color:#8F9296"/>
			</linearGradient>
			<path class="st9" d="M145.1,258.1c-46.5,0-84.4-37.8-84.4-84.3c-0.2-1.9-3.2-37.7,24.6-74.1l0.1-0.1l54.1-83.2h53.6l-45.9,72.9
				c45.6,1.1,82.3,38.5,82.3,84.4C229.5,220.2,191.7,258.1,145.1,258.1z M87.7,100.3L87.7,100.3l-0.4,0.6
				c-28,36.4-24.3,72.3-24.3,72.6v0.1c0,45.2,36.8,82.1,82.1,82.1c45.2,0,82.1-36.8,82.1-82.1c0-45.2-36.8-82.1-82.1-82.1H143
				l45.9-72.9h-48.1L87.7,100.3z M145.1,220.7c-25.9,0-47-21.1-47-47s21.1-47,47-47s47,21.1,47,47S171.1,220.7,145.1,220.7z
				 M145.1,129c-24.7,0-44.7,20.1-44.7,44.7c0,24.7,20.1,44.7,44.7,44.7c24.7,0,44.7-20.1,44.7-44.7C189.8,149,169.8,129,145.1,129z
				"/>
		</g>
		<g>
			
				<linearGradient id="SVGID_10_" gradientUnits="userSpaceOnUse" x1="96.7513" y1="-526.2614" x2="96.7513" y2="-469.5612" gradientTransform="matrix(1 0 0 1 0 726)">
				<stop  offset="0" style="stop-color:#FBFBFB"/>
				<stop  offset="0.4428" style="stop-color:#F9F9F9"/>
				<stop  offset="0.6024" style="stop-color:#F2F2F2"/>
				<stop  offset="0.716" style="stop-color:#E7E7E7"/>
				<stop  offset="0.808" style="stop-color:#D6D6D6"/>
				<stop  offset="0.8867" style="stop-color:#C0C0C1"/>
				<stop  offset="0.9551" style="stop-color:#A5A5A7"/>
				<stop  offset="1" style="stop-color:#8F8F91"/>
			</linearGradient>
			<path class="st10" d="M144.9,243.7c-0.6-8.1-8.1-11.2-12.2-10.5c3.4-1.9,8-10.8,1-17.7c-5.3-5.3-12.4-3.3-14.9-1
				c1.4-4.3-0.8-13.5-9.6-14.6c-8-1.2-11.5,4.6-12.5,7.2c-1.5-3.8-5.2-7.9-12.1-7.2c-8.7,0.8-11.4,9.3-10.1,14.2
				c-3.5-2.3-9.6-3.5-14.5,1.1c-6.9,6.4-3.1,15.6,0.6,17.8c-4.1-0.4-10.5,2.3-11.8,9.5c-1.6,8.8,5.2,14,11.8,14h72.9
				C141.1,256.5,145.4,249.9,144.9,243.7z M61.3,216.5c5.3-4.7,12.8-2.9,15.9,4.3l13.5,30.6L63,232.5
				C56.1,227.8,57.3,219.9,61.3,216.5z M60.5,254.7c-6.6,0-11.7-6-9.7-13.3c2.5-6.4,9.4-8.8,15.2-4.8l26,18.1H60.5z M95.6,213.5
				l-5,34.4l-13.9-32.7c-3.4-7.9,3.8-13.5,8.2-13.5C90.2,201.1,96.8,205,95.6,213.5z M132.6,217c3.5,3.7,4.7,10.9-1.8,15.3l-27.7,19
				l13.1-30.3C120.3,211.6,129.2,213.5,132.6,217z M101.9,212.9c-0.1-0.7-1.6-0.7-1.6-0.7h-2.6c-0.3-7.7,5.7-11,10.6-10.7
				c5.3,0.2,11.4,6.4,8.3,13.6L103,247.9l-4.4-29.5C97.8,213.8,100.9,213.7,101.9,212.9z M133.7,254.7h-32l26-18.1
				c6.3-4.4,13.2-0.3,14.9,5.2C144.6,248,140.3,254.8,133.7,254.7z"/>
			
				<linearGradient id="SVGID_11_" gradientUnits="userSpaceOnUse" x1="48.05" y1="-497.8358" x2="145.1834" y2="-497.8358" gradientTransform="matrix(1 0 0 1 0 726)">
				<stop  offset="0" style="stop-color:#A3A4A6"/>
				<stop  offset="9.772342e-02" style="stop-color:#D1D2D3"/>
				<stop  offset="0.1818" style="stop-color:#F2F3F3"/>
				<stop  offset="0.2276" style="stop-color:#FFFFFF"/>
				<stop  offset="0.27" style="stop-color:#ECEDED"/>
				<stop  offset="0.3554" style="stop-color:#BCBDBE"/>
				<stop  offset="0.3847" style="stop-color:#AAABAD"/>
				<stop  offset="0.5516" style="stop-color:#DEDEDF"/>
				<stop  offset="0.6508" style="stop-color:#FFFFFF"/>
				<stop  offset="0.8768" style="stop-color:#8F8F91"/>
			</linearGradient>
			<path class="st11" d="M60.5,256.9c-3.8,0-7.5-1.6-9.8-4.4c-1.6-1.9-3.3-5.1-2.4-10c0.8-4.2,3.2-6.5,5-7.8c1.8-1.2,4-1.9,6-2
				c-1.8-1.6-3.2-4.5-3.5-7.5c-0.3-2.7,0.1-6.7,3.9-10.2c4.5-4.2,10.2-3.9,14.2-1.6c-0.5-2.9,0.3-6.4,2.1-9c1.4-2,4-4.4,8.5-4.8
				c7.4-0.7,10.8,3.9,12.1,6.6c1.1-2.4,4.6-7.8,12.6-6.6c4.5,0.6,6.9,3.1,8.2,5.2c1.9,3,2.3,6.5,1.9,8.9c1.3-0.8,3.3-1.7,5.7-1.8
				c2.3-0.1,5.7,0.4,8.8,3.4c3.6,3.6,4,7.4,3.6,10c-0.3,2.3-1.1,4.1-1.8,5.1c-0.5,0.9-1.2,1.7-1.8,2.3c2,0,4.6,0.8,6.8,2.5
				c1.8,1.4,4.1,4,4.4,8.4c0.3,3.4-0.8,7-3.1,9.5c-1.5,1.7-4.3,3.7-8.6,3.7l0,0L60.5,256.9C60.6,256.9,60.6,256.9,60.5,256.9z
				 M59.8,233.4c-2,0-4.1,0.7-5.9,1.9c-1.8,1.2-4,3.4-4.7,7.3c-0.7,3.6,0.1,6.9,2.2,9.4c2.2,2.6,5.6,4.1,9.2,4.1l0,0h72.9l0,0
				c4.1,0,6.6-1.9,8-3.4c2.1-2.3,3.2-5.7,2.9-8.9l0,0c-0.3-4.1-2.4-6.5-4.1-7.9c-2.6-2-5.7-2.6-7.6-2.3l-2.2,0.4l1.9-1.1
				c1.8-1,3.9-4,4.3-7.7c0.3-2.4,0-6.1-3.4-9.4c-5.2-5.1-12-3.2-14.3-1l-1,1l0.4-1.4c0.7-2.2,0.5-6.1-1.6-9.3
				c-1.2-1.9-3.5-4.3-7.7-4.8c-8.5-1.2-11.6,5.6-12.1,7l-0.3,0.9l-0.4-0.9c-1-2.4-4-7.7-11.7-7c-4.3,0.4-6.7,2.7-8,4.5
				c-2.1,3.1-2.5,6.8-1.8,9.2l0.3,1l-0.8-0.6c-3.8-2.5-9.6-3.1-14.1,1.1c-3.5,3.3-3.9,7-3.6,9.6c0.4,3.6,2.4,6.6,4.1,7.6l1.5,0.9
				l-1.7-0.2C60.3,233.5,60.1,233.4,59.8,233.4z M60.4,255.2c-3.3,0-6.4-1.5-8.4-4.1c-2.1-2.7-2.6-6.1-1.7-9.7l0,0
				c1.3-3.3,3.7-5.7,6.8-6.6c3-0.9,6.2-0.4,9,1.6l27,18.8H60.4C60.5,255.2,60.4,255.2,60.4,255.2z M51.2,241.7
				c-0.9,3.3-0.4,6.5,1.5,9c1.8,2.4,4.7,3.8,7.8,3.8l0,0h30.3l-25-17.4c-2.6-1.8-5.6-2.3-8.4-1.5C54.6,236.4,52.3,238.7,51.2,241.7z
				 M133.7,255.2L133.7,255.2h-33.3l27-18.8c2.8-1.9,5.9-2.4,8.9-1.4c3.1,1.1,5.6,3.7,6.5,6.8c1,3.2,0.5,6.8-1.5,9.5
				C139.6,253.8,136.8,255.2,133.7,255.2z M102.9,254.5h30.8c2.8,0,5.4-1.3,7.1-3.6c1.8-2.5,2.4-5.8,1.4-8.8
				c-0.9-2.9-3.2-5.3-6.1-6.3c-2.7-1-5.7-0.5-8.2,1.3L102.9,254.5z M91.6,252.7L62.7,233c-3.1-2.1-4.9-5.1-5.1-8.5
				c-0.2-3.1,1.1-6.2,3.3-8.1c2.6-2.3,5.8-3.2,8.9-2.5c3.3,0.7,6.1,3.3,7.6,6.9L91.6,252.7z M67.8,214.4c-2.2,0-4.5,0.9-6.3,2.5l0,0
				c-2,1.8-3.2,4.6-3.1,7.5c0.2,3.1,1.8,5.9,4.7,7.9l26.6,18.2l-13-29.4c-1.4-3.4-4-5.7-7.1-6.4C69.1,214.5,68.5,214.4,67.8,214.4z
				 M102.2,252.5l13.6-31.5c2.2-5,5.6-6.6,8-7c3.8-0.7,7.3,1,9.1,2.9l0,0c2.1,2.2,3.2,5.5,2.9,8.5c-0.2,2.1-1.2,5-4.8,7.4
				L102.2,252.5z M125.5,214.6c-0.5,0-1,0-1.6,0.1c-2.2,0.4-5.4,1.9-7.4,6.6L104,250.4l26.6-18.3c2.6-1.8,4.1-4.1,4.4-6.9
				c0.3-2.8-0.7-5.8-2.7-7.9C130.9,215.9,128.3,214.6,125.5,214.6z M90.9,249.4l-14.4-33.9c-1.8-4.2-0.6-7.4,0.6-9.3
				c2-3.1,5.5-4.7,7.9-4.8c3-0.3,6.2,0.8,8.3,3c1.6,1.6,3.3,4.5,2.7,9.3l0,0L90.9,249.4z M86.1,202.1c-0.3,0-0.7,0-1,0.1l0,0
				c-2.2,0-5.4,1.6-7.3,4.4c-1.2,1.8-2.2,4.7-0.6,8.6l13.3,31.4l4.8-33c0.6-4.5-1-7.2-2.4-8.7C91.1,203.1,88.6,202.1,86.1,202.1z
				 M102.8,249.4l-4.6-30.9c-0.6-3.8,1.5-4.8,2.7-5.4c0.2-0.1,0.3-0.2,0.5-0.2c-0.2-0.1-0.6-0.2-0.9-0.2l0,0h-3.1v-0.4
				c-0.1-3.3,0.9-6.2,3-8.2c2-2,5.1-3.1,8-2.9c3,0.1,6.2,2.1,8,4.9c1.8,2.8,2,6.1,0.7,9.2L102.8,249.4z M100.5,212
				c0.4,0,0.8,0.1,0.8,0.1c0.7,0.2,0.9,0.6,1,0.9v0.2l-0.2,0.1c-0.2,0.2-0.6,0.3-0.9,0.5c-1.3,0.6-2.8,1.3-2.3,4.5l4.2,28.2
				l13.2-31.4c1.2-2.9,1-6-0.6-8.5c-1.6-2.6-4.6-4.4-7.4-4.6c-2.8-0.2-5.5,0.8-7.4,2.7c-1.8,1.8-2.8,4.3-2.8,7.3h2.2
				C100.4,212,100.5,212,100.5,212z"/>
			<path class="st12" d="M133.8,254.9h-32l26-18.1c6.3-4.4,13.2-0.3,14.9,5.2C144.7,248.1,140.3,254.9,133.8,254.9L133.8,254.9z"/>
			<path class="st13" d="M130.8,232.4l-27.7,19l13.1-30.3c4.2-9.5,13.1-7.6,16.4-4.1C136.1,220.8,137.4,228,130.8,232.4L130.8,232.4
				z"/>
			<path class="st14" d="M116.8,215.3L103,248l-4.4-29.5c-0.7-4.5,2.4-4.6,3.4-5.4c-0.1-0.7-1.6-0.7-1.6-0.7h-2.6
				c-0.3-7.7,5.7-11,10.6-10.7C113.7,201.9,119.8,208,116.8,215.3L116.8,215.3z"/>
			<path class="st15" d="M95.7,213.6l-5,34.4l-13.9-32.7c-3.4-7.9,3.8-13.5,8.2-13.5C90.3,201.2,96.9,205.1,95.7,213.6L95.7,213.6z"
				/>
			<path class="st16" d="M77.2,220.9l13.5,30.6L63,232.7c-6.9-4.7-5.7-12.6-1.7-16C66.7,212,74.2,213.8,77.2,220.9L77.2,220.9z"/>
			<path class="st17" d="M50.8,241.6c2.5-6.4,9.4-8.8,15.2-4.8l26,18.1H60.5C54,254.9,48.8,248.9,50.8,241.6L50.8,241.6z"/>
		</g>
	</g>
</g>
</svg>
